<svg xmlns="http://www.w3.org/2000/svg" viewBox="0 0 32 32">
  <defs>
    <linearGradient id="g" x1="0%" y1="100%" x2="100%" y2="0%">
      <stop offset="0%" stop-color="#0f172a"/>
      <stop offset="50%" stop-color="#1e1b4b"/>
      <stop offset="100%" stop-color="#4f46e5"/>
    </linearGradient>
  </defs>
  <rect width="32" height="32" rx="8" fill="url(#g)"/>
  <path d="M7 13a2 2 0 0 1 2-2h1.2a2 2 0 0 0 1.66-.89l.81-1.22A2 2 0 0 1 14.34 8h3.32a2 2 0 0 1 1.67.89l.81 1.22A2 2 0 0 0 21.8 11H23a2 2 0 0 1 2 2v10a2 2 0 0 1-2 2H7a2 2 0 0 1-2-2V13z" fill="none" stroke="#ffffff" stroke-width="1.8" stroke-linecap="round" stroke-linejoin="round"/>
  <circle cx="16" cy="18" r="3.5" fill="none" stroke="#ffffff" stroke-width="1.8"/>
  <circle cx="25" cy="25" r="2.5" fill="#10b981" stroke="#ffffff" stroke-width="1.2"/>
</svg>
